<?xml version="1.0" encoding="utf-8"?>
<!-- Generator: Adobe Illustrator 23.0.1, SVG Export Plug-In . SVG Version: 6.00 Build 0)  -->
<svg version="1.1" id="Layer_1" xmlns="http://www.w3.org/2000/svg" xmlns:xlink="http://www.w3.org/1999/xlink" x="0px" y="0px"
	 viewBox="0 0 288 43.13" style="enable-background:new 0 0 288 43.13;" xml:space="preserve">
<style type="text/css">
	.st0{fill:#414042;}
	.st1{fill:#07B798;}
	.st2{fill:#EB4D34;}
	.st3{fill:#EFC619;}
	.st4{fill:#9557A3;}
</style>
<path class="st0" d="M35.42,19.44v3.12l-2.73,1.11v4.16h5.1c-0.72,0.94-1.61,1.68-2.66,2.2c-1.06,0.52-2.17,0.78-3.33,0.78
	c-1.09,0-2.11-0.22-3.04-0.65c-0.93-0.43-1.75-1.01-2.44-1.73c-0.7-0.72-1.24-1.56-1.62-2.53c-0.28-0.71-0.46-1.45-0.54-2.22
	l2.76-1.11c-0.05-0.37-0.08-0.75-0.08-1.14c0-0.16,0.01-0.32,0.01-0.47h2.97v-1.37h-2.78c0.09-0.41,0.22-0.81,0.37-1.2
	c0.38-0.96,0.92-1.79,1.6-2.51c0.68-0.72,1.49-1.3,2.42-1.73c0.93-0.43,1.94-0.65,3.04-0.65c1.04,0,2.03,0.2,2.96,0.61
	c0.93,0.41,1.78,1,2.55,1.77l6.33-4.21c-1.52-1.79-3.3-3.17-5.35-4.15c-2.05-0.98-4.22-1.47-6.5-1.47c-2.14,0-4.13,0.4-5.98,1.21
	c-1.85,0.81-3.46,1.91-4.84,3.32c-1.38,1.4-2.46,3.04-3.24,4.9c-0.55,1.32-0.91,2.69-1.07,4.12h4.25v1.37h-4.35
	c0,0.15-0.01,0.29-0.01,0.44c0,0.4,0.02,0.79,0.04,1.18l-2.75,1.11c0.09,1.81,0.47,3.51,1.13,5.11c0.77,1.85,1.84,3.46,3.2,4.84
	c1.37,1.38,2.97,2.47,4.82,3.26c1.85,0.79,3.86,1.19,6.02,1.19c2.48,0,4.84-0.57,7.08-1.71v0.82h6.59V23.67l2.73-1.11v-3.12H35.42z"
	/>
<rect x="13.89" y="14.83" class="st1" width="2.66" height="2.66"/>
<rect x="16.55" y="13.14" class="st1" width="2.66" height="2.66"/>
<path class="st0" d="M88.24,15.07v-1.65v-0.25V9.57h1.8V8.03h-1.8v-1.2h-5.4c-0.3,0-0.53,0.13-0.68,0.39l-0.49,0.81h2.4v1.54h-3.34
	l-3.3,5.46l-3.21-5.35h3.24V8.03h-4.23l-0.48-0.81c-0.2-0.26-0.43-0.39-0.72-0.39h-5.4v1.2h3.23v1.65h-3.23v3.75h-1.8v1.65h1.8v4.89
	h3.34v1.44h-3.34v2.74l-4.01-10.96h1.73v-1.47H62.1l-1.78-4.88h-5.2l-1.78,4.88h2.6v1.47h-3.14l-5.52,15.09h6.31l1.07-2.89h6.11
	l1.07,2.89h4.8h1.51h4.54V18.25l3.9,6.44c0.11,0.17,0.25,0.29,0.42,0.34c0.17,0.05,0.31,0.08,0.42,0.08c0.13,0,0.28-0.03,0.46-0.08
	c0.17-0.05,0.31-0.17,0.42-0.34l3.9-6.44v10.02h6.02V21.4h1.4v-1.39h-1.4v-3.8V15.07z M56.35,20.07l1.37-4.16l1.37,4.16H56.35z"/>
<g>
	<path class="st2" d="M210.25,15.4v1.81h-2.12V15.4h-1.88v-2.02h1.88v-1.81h2.12v1.81h1.9v2.02H210.25z"/>
</g>
<circle class="st3" cx="228.28" cy="11.75" r="1.22"/>
<circle class="st2" cx="228.28" cy="17.91" r="1.22"/>
<circle class="st4" cx="231.43" cy="14.76" r="1.22"/>
<circle class="st1" cx="225.43" cy="14.76" r="1.22"/>
<rect x="149.91" y="26.54" class="st1" width="2.66" height="2.66"/>
<rect x="151.15" y="23.9" class="st1" width="2.66" height="2.66"/>
<rect x="154" y="29.61" class="st4" width="2.66" height="2.66"/>
<polygon class="st0" points="109.92,26.31 109.92,24.92 108.43,24.92 108.43,22.86 97.08,22.86 97.08,20.23 107.81,20.23 
	107.81,14.83 97.08,14.83 97.08,12.2 108.43,12.2 108.43,9.71 105.55,9.71 105.55,8.22 108.43,8.22 108.43,6.83 91.42,6.83 
	91.42,12.69 90.04,12.69 90.04,14.18 91.42,14.18 91.42,24.93 94.08,24.93 94.08,26.31 91.42,26.31 91.42,28.26 108.43,28.26 
	108.43,26.31 "/>
<path class="st0" d="M127.78,23.91h0.97v-1.39h-1.76l-1.76-3.1c0.88-0.63,1.57-1.4,2.07-2.32c0.05-0.09,0.09-0.19,0.13-0.29h-2.72
	v-1.39h3.19c0.09-0.42,0.14-0.86,0.14-1.3c0-0.64-0.1-1.32-0.29-2.03c-0.08-0.31-0.19-0.59-0.3-0.87h1.61V9.83h-2.46
	c-0.23-0.29-0.48-0.57-0.77-0.85c-0.42-0.4-0.88-0.77-1.38-1.09c-0.5-0.32-1.01-0.58-1.55-0.77c-0.53-0.19-1.06-0.29-1.57-0.29
	h-10.74v3h3.36v1.39h-3.36v4.2h-1.14v1.39h1.14v11.45h5.91l-0.03-6.63h3.62l0.49,0.88h1.85v1.39h-1.07l2.45,4.36h6.44L127.78,23.91z
	 M121.89,14.82c-0.13,0.27-0.3,0.52-0.52,0.73c-0.22,0.21-0.48,0.37-0.77,0.49c-0.29,0.12-0.61,0.18-0.94,0.18h-3.34v-4.61h3.34
	c0.33,0,0.64,0.06,0.94,0.18c0.29,0.12,0.55,0.28,0.77,0.49c0.22,0.21,0.4,0.45,0.52,0.73c0.13,0.27,0.19,0.58,0.19,0.91
	C122.08,14.24,122.01,14.55,121.89,14.82z"/>
<path class="st0" d="M148.49,23.43h-0.98c0.14-0.56,0.22-1.18,0.22-1.87c0-0.46-0.04-0.92-0.11-1.38c-0.07-0.47-0.2-0.9-0.4-1.31
	c-0.04-0.09-0.09-0.18-0.13-0.26h-3.4v-1.39h2.23c-0.35-0.29-0.72-0.56-1.14-0.79c-0.54-0.29-1.11-0.54-1.72-0.74
	c-0.61-0.2-1.21-0.38-1.81-0.54c-0.62-0.16-1.21-0.29-1.77-0.41c-0.56-0.11-1.08-0.23-1.56-0.36c-0.48-0.12-0.88-0.26-1.2-0.41
	c-0.33-0.15-0.55-0.32-0.67-0.51c-0.11-0.18-0.16-0.39-0.16-0.63c0-0.33,0.08-0.6,0.24-0.8c0.16-0.2,0.36-0.36,0.61-0.46
	c0.25-0.11,0.52-0.17,0.81-0.2c0.29-0.03,0.57-0.04,0.83-0.04c1.11,0,2.14,0.16,3.1,0.48c0.96,0.32,1.95,0.72,2.97,1.22
	c0.35-0.61,0.69-1.2,1.03-1.79h-1.79V9.83h2.6c0.23-0.4,0.46-0.79,0.7-1.19c-1.2-0.74-2.46-1.28-3.78-1.61
	c-1.32-0.33-2.66-0.49-4.02-0.49c-0.83,0-1.66,0.06-2.48,0.19c-0.83,0.12-1.62,0.34-2.36,0.63c-0.24,0.1-0.47,0.21-0.69,0.33h1.84
	v1.39h-3.68c-0.4,0.44-0.74,0.95-1.02,1.54c-0.19,0.41-0.34,0.83-0.44,1.28c-0.1,0.45-0.15,0.9-0.15,1.34
	c0,1.27,0.22,2.29,0.67,3.06c0.2,0.34,0.43,0.64,0.69,0.92h-0.6v1.39h2.65c0.09,0.04,0.18,0.08,0.28,0.12
	c0.43,0.17,0.89,0.32,1.36,0.46c0.46,0.14,0.93,0.26,1.43,0.37c0.49,0.11,1,0.22,1.51,0.34c0.39,0.09,0.78,0.17,1.16,0.24
	c0.39,0.07,0.77,0.18,1.14,0.32c0.16,0.05,0.33,0.12,0.5,0.21c0.18,0.09,0.34,0.19,0.5,0.3c0.16,0.11,0.29,0.25,0.4,0.4
	c0.11,0.15,0.16,0.32,0.16,0.52c0,0.41-0.09,0.72-0.28,0.94c-0.19,0.22-0.42,0.38-0.7,0.49c-0.28,0.11-0.59,0.17-0.94,0.2
	c-0.34,0.03-0.67,0.04-0.96,0.04c-1.07,0-2.09-0.13-3.05-0.38c-0.96-0.26-1.92-0.62-2.87-1.1c-0.21-0.12-0.43-0.23-0.66-0.32
	c-0.11,0.19-0.29,0.51-0.55,0.95c-0.14,0.24-0.3,0.49-0.45,0.75h1.88v1.39h-2.71c-0.14,0.23-0.26,0.43-0.36,0.61
	c-0.11,0.18-0.19,0.34-0.26,0.46c-0.07,0.12-0.11,0.19-0.11,0.21c0,0.04,0.07,0.1,0.21,0.18c0.14,0.07,0.23,0.11,0.26,0.11
	c1.23,0.58,2.52,1.03,3.87,1.35c1.35,0.32,2.71,0.49,4.08,0.49c1.11,0,2.22-0.1,3.33-0.3c1.11-0.2,2.1-0.55,2.99-1.06
	c0.88-0.5,1.59-1.18,2.14-2.04c0.01-0.01,0.01-0.03,0.02-0.04h1.57V23.43z"/>
<polygon class="st0" points="160.29,34.71 161.54,38.06 169.35,38.06 170.6,34.71 168.21,34.71 168.21,33.32 171.12,33.32 
	175.88,20.53 174.05,20.53 174.05,19.14 176.39,19.14 178.22,14.23 180.1,14.23 180.1,12.84 178.74,12.84 181.38,5.74 171.69,5.74 
	169.03,12.84 171.4,12.84 171.4,14.23 168.51,14.23 166.68,19.14 166.16,20.53 165.43,22.49 162.6,14.93 164.29,14.93 164.29,13.54 
	162.08,13.54 159.16,5.74 149.47,5.74 151,9.83 149.42,9.83 149.42,11.23 151.52,11.23 152.38,13.54 155.18,13.54 155.18,14.93 
	152.9,14.93 154.47,19.14 157.35,19.14 157.35,20.53 154.99,20.53 159.77,33.32 "/>
<path class="st0" d="M178.71,23.29l-1.82,4.97h6.34l1.08-2.91h6.14l1.08,2.91h5.47h0.87h16.37V22.8h-11.19v-2.97h-2.76v-1.39h2.76
	v-7.91h2.06V9.14h-2.06V6.7h-6.05v2.43h2.02v1.39h-2.02v7.91h-1.15v1.39h1.15v6.05l-0.95-2.59h-3.72V21.9h3.21l-2.8-7.67h2.46v-1.39
	h-2.97l-2.23-6.1h-5.23l-2.23,6.1h2.88v1.39h-3.39l-2.8,7.67L178.71,23.29z M186.01,20.03l1.37-4.18l1.37,4.18H186.01z"/>
<polygon class="st0" points="222.11,22.8 222.11,19.83 224.21,19.83 224.21,18.44 222.11,18.44 222.11,10.53 220.17,10.53 
	220.17,9.14 222.11,9.14 222.11,6.7 216.06,6.7 216.06,9.14 214.04,9.14 214.04,10.53 216.06,10.53 216.06,18.44 218.08,18.44 
	218.08,19.83 216.06,19.83 216.06,28.26 233.3,28.26 233.3,22.8 "/>
<polygon class="st0" points="251.54,20.23 251.54,17.91 253.32,17.91 253.32,16.52 251.54,16.52 251.54,14.83 240.81,14.83 
	240.81,12.2 252.16,12.2 252.16,10.53 249.76,10.53 249.76,9.14 252.16,9.14 252.16,6.83 235.15,6.83 235.15,9.14 233.92,9.14 
	233.92,10.53 235.15,10.53 235.15,16.52 237.95,16.52 237.95,17.91 235.15,17.91 235.15,25.49 234.45,25.49 234.45,26.88 
	235.15,26.88 235.15,28.26 252.16,28.26 252.16,26.88 249.28,26.88 249.28,25.49 252.16,25.49 252.16,22.86 240.81,22.86 
	240.81,20.23 "/>
<polygon class="st0" points="260.83,24.79 260.83,20.85 259.36,17.91 257.59,17.91 257.59,16.52 258.67,16.52 253.79,6.74 
	260.73,6.74 261.54,8.44 259.61,8.44 259.61,9.83 262.2,9.83 263.95,13.52 267.14,6.74 274.11,6.74 273.26,8.44 274.11,8.44 
	274.11,9.83 272.56,9.83 269.22,16.52 266.26,16.52 266.26,17.91 268.52,17.91 267.05,20.85 267.05,24.79 264.44,24.79 
	264.44,26.18 267.05,26.18 267.05,28.31 260.83,28.31 260.83,26.18 "/>
</svg>
